<svg width="358" height="370" viewBox="0 0 358 370" fill="none" xmlns="http://www.w3.org/2000/svg">
<path d="M171.552 3L169.269 3.01451L167.05 3.05545L166.988 3.05684L166.926 3.05882L164.773 3.1256L164.711 3.12758L164.649 3.13017L162.499 3.22357L162.437 3.22616L162.376 3.22953L160.229 3.34957L160.168 3.35314L160.106 3.35692L157.963 3.50319L157.902 3.50756L157.841 3.51213L155.641 3.68999L155.579 3.69536L153.445 3.89409L153.323 3.90601L151.192 4.13097L151.131 4.13753L151.071 4.14449L148.945 4.39529L148.884 4.40264L148.824 4.41039L146.704 4.68702L146.643 4.69517L146.583 4.70372L144.467 5.00618L144.407 5.01473L144.346 5.02447L142.237 5.35237L142.176 5.36211L142.116 5.37205L140.012 5.72579L139.952 5.73572L137.794 6.12623L137.734 6.13716L137.674 6.14888L135.582 6.5537L135.522 6.56542L135.462 6.57735L133.377 7.0078L133.317 7.01972L133.257 7.03304L131.178 7.48833L131.119 7.50164L131.06 7.51515L128.987 7.99608L128.928 8.0096L126.744 8.54458L126.685 8.55968L124.731 9.06347L122.989 9.69105L121.393 10.6311L119.999 11.8513L118.856 13.3085L118.003 14.9528L117.471 16.7267L117.276 18.5683L117.427 20.4146L117.918 22.2003L118.732 23.8643L119.84 25.348L121.205 26.6002L122.778 27.5776L124.506 28.2459L126.327 28.5826L128.179 28.5746L129.693 28.3069L131.594 27.8171L133.528 27.3435L135.49 26.8878L137.459 26.4569L139.434 26.0499L141.379 25.6734L143.372 25.3129L145.328 24.984L147.354 24.6684L149.325 24.3866L151.331 24.125L153.338 23.8884L155.353 23.6757L157.371 23.4877L159.39 23.3252L161.415 23.1872L163.442 23.0744L165.474 22.9863L167.476 22.9241L169.513 22.8864L171.552 22.8736L173.592 22.8866L175.629 22.9243L177.63 22.9863L179.662 23.0744L181.689 23.1872L183.715 23.3252L185.733 23.4877L187.752 23.6755L189.767 23.8882L191.773 24.125L193.78 24.3866L195.75 24.6684L197.777 24.984L199.733 25.3129L201.725 25.6734L203.67 26.0499L205.646 26.4569L207.413 26.8441L209.251 27.0702L211.1 26.951L212.894 26.4911L214.571 25.7061L216.074 24.6235L217.35 23.2808L218.354 21.7244L219.052 20.0093L219.42 18.1937L219.444 16.3416L219.124 14.5172L218.471 12.7843L217.508 11.2022L216.268 9.82659L214.794 8.70436L213.138 7.87565L211.666 7.43129L209.847 7.03304L209.788 7.01992L209.728 7.008L207.642 6.57735L207.583 6.56542L207.523 6.5537L205.43 6.14888L205.371 6.13716L203.212 5.74685L203.152 5.73592L203.093 5.72579L200.988 5.37205L200.928 5.36211L200.868 5.35237L198.758 5.02447L198.698 5.01473L198.637 5.00618L196.522 4.70372L196.462 4.69517L194.22 4.40244L192.033 4.14449L191.973 4.13753L191.912 4.13097L189.782 3.90621L189.721 3.90005L189.66 3.89409L187.525 3.69536L187.464 3.68999L185.264 3.51213L185.202 3.50756L185.142 3.50319L182.998 3.35692L182.937 3.35294L180.729 3.22973L180.667 3.22616L180.606 3.22337L178.455 3.13017L178.394 3.12758L178.332 3.1256L176.178 3.05882L176.116 3.05684L173.836 3.01451L171.552 3ZM275.134 36.7246L273.282 36.7655L271.47 37.1498L269.761 37.8637L268.214 38.8822L266.883 40.1699L265.814 41.6827L265.044 43.3675L264.601 45.1654L264.499 47.015L264.742 48.8509L265.321 50.6103L266.217 52.2313L267.398 53.6582L268.565 54.6588L269.089 55.0413L270.714 56.2596L272.285 57.4678L273.897 58.7397L275.46 60.0039L277.008 61.2882L278.557 62.6058L280.093 63.9467L281.579 65.2756L283.099 66.6691L284.572 68.0532L286.028 69.4563L287.484 70.8941L288.907 72.3349L290.326 73.8067L291.723 75.294L293.074 76.7666L294.432 78.2858L295.772 79.8214L297.075 81.3523L298.374 82.9192L299.639 84.4823L300.883 86.0588L302.134 87.6844L303.338 89.2902L304.52 90.9088L305.682 92.5404L306.825 94.1863L307.959 95.8657L309.059 97.5379L310.138 99.2211L311.209 100.939L312.258 102.669L313.265 104.376L314.259 106.109L315.231 107.851L316.194 109.63L317.116 111.382L318.022 113.159L318.485 114.093L319.458 115.669L320.707 117.037L322.188 118.149L323.849 118.968L325.634 119.464L327.479 119.62L329.322 119.43L331.097 118.903L332.744 118.055L334.204 116.916L335.428 115.526L336.372 113.932L337.005 112.191L337.303 110.364L337.257 108.512L336.868 106.701L336.295 105.274L335.814 104.303L335.787 104.249L334.795 102.304L334.767 102.25L333.751 100.318L333.723 100.264L333.693 100.211L332.682 98.3441L332.653 98.2905L332.624 98.2378L331.59 96.3824L331.56 96.3296L331.53 96.2767L330.473 94.4335L330.442 94.381L330.411 94.3288L329.332 92.4979L329.3 92.4458L329.269 92.3937L328.166 90.5757L328.134 90.5237L328.103 90.472L326.945 88.6151L326.912 88.564L325.764 86.7714L325.731 86.7204L325.697 86.6695L324.493 84.8394L324.459 84.7889L323.266 83.0232L323.232 82.9727L323.197 82.9226L321.982 81.1706L321.947 81.1205L321.912 81.0709L320.674 79.3332L320.638 79.2831L319.343 77.51L319.307 77.4607L319.27 77.4118L317.989 75.7024L317.952 75.6535L316.573 73.8613L316.536 73.8132L315.21 72.133L315.172 72.0853L313.786 70.3722L313.748 70.3245L313.709 70.2776L312.3 68.5802L310.87 66.8992L310.83 66.8523L310.79 66.806L309.378 65.1871L309.338 65.141L309.297 65.0953L307.863 63.4922L307.822 63.4465L307.781 63.4013L306.326 61.8145L306.284 61.7692L306.242 61.724L304.766 60.1537L304.724 60.109L303.184 58.5106L303.142 58.4665L301.58 56.8856L301.537 56.8416L301.493 56.7981L299.956 55.28L299.912 55.2367L298.269 53.6542L298.225 53.6119L296.654 52.1361L296.609 52.0938L294.932 50.556L294.886 50.5149L293.283 49.0814L293.238 49.0407L293.191 49.0003L291.572 47.5882L291.526 47.5478L291.479 47.5081L289.845 46.1176L289.798 46.0776L289.751 46.0385L288.101 44.6692L288.054 44.6306L288.006 44.5917L286.341 43.2443L286.293 43.2061L286.245 43.168L284.565 41.8425L284.517 41.8045L282.725 40.4261L282.676 40.3897L280.966 39.1079L280.918 39.0712L280.868 39.0354L280.29 38.6131L278.7 37.6646L276.96 37.0276L275.134 36.7246ZM63.9451 40.6767L62.0949 40.763L60.2926 41.1902L58.6014 41.9452L57.3242 42.8013L56.8595 43.1678L56.8114 43.206L56.7637 43.2443L55.0984 44.5917L55.0507 44.6305L55.0038 44.6692L53.3537 46.0383L53.3064 46.0774L53.2599 46.1174L51.6254 47.5077L51.5789 47.5476L51.5322 47.588L49.9137 49.0001L49.867 49.0405L49.8217 49.0812L48.2187 50.5147L48.173 50.5558L48.1273 50.5973L46.5407 52.052L46.4953 52.0938L46.4506 52.1359L44.8799 53.6117L44.8351 53.654L44.791 53.6967L43.1926 55.2365L41.6115 56.7981L41.5678 56.8414L41.5243 56.8852L40.0062 58.4224L39.9629 58.4661L38.4231 60.0643L38.3804 60.1088L38.3384 60.1535L36.8199 61.769L35.3237 63.4011L35.282 63.4461L35.2414 63.4918L33.8076 65.0949L33.7669 65.1406L32.274 66.8521L32.2342 66.899L30.8437 68.5336L30.804 68.5801L30.7648 68.6276L29.396 70.2774L29.3566 70.3245L29.3183 70.3722L27.9321 72.0851L27.8944 72.1328L26.5688 73.813L26.5311 73.8611L26.4937 73.9098L25.1527 75.6533L25.1159 75.7022L23.8341 77.4116L23.7977 77.4605L23.7616 77.5098L22.4658 79.2829L22.4301 79.333L21.1928 81.0707L21.1576 81.1203L21.1226 81.1704L19.9074 82.9224L19.8724 82.9725L19.8382 83.023L18.6455 84.7887L18.6113 84.8392L18.5779 84.8901L17.4074 86.6693L17.3736 86.7202L17.341 86.7712L16.1927 88.5638L16.1597 88.6151L15.0019 90.4718L14.9701 90.5235L14.9383 90.5755L13.8354 92.3935L13.773 92.4977L12.6933 94.3286L12.6623 94.3808L12.6319 94.4333L11.5746 96.2765L11.515 96.3822L10.4514 98.2903L10.4222 98.3439L9.41105 100.211L9.38203 100.264L9.35421 100.318L8.3375 102.25L8.30988 102.304L7.31782 104.248L7.29059 104.303L6.3494 106.204L6.32218 106.259L6.29634 106.313L5.37781 108.226L5.35198 108.28L5.32614 108.335L4.43166 110.258L4.40642 110.313L4.38118 110.369L3.86448 111.516L3.26431 113.268L3 115.102L3.08088 116.952L3.50319 118.755L4.253 120.449L5.30428 121.974L6.61988 123.278L8.15507 124.314L9.85561 125.048L11.6627 125.453L13.5138 125.516L15.3441 125.234L17.091 124.618L18.6928 123.688L20.094 122.477L21.246 121.027L21.9843 119.677L22.476 118.585L23.3285 116.753L24.191 114.957L25.0825 113.158L25.9887 111.382L26.9107 109.63L27.8737 107.851L28.8451 106.109L29.8391 104.376L30.8461 102.669L31.8954 100.939L32.9666 99.2211L34.0451 97.5379L35.145 95.8655L36.28 94.1861L37.4223 92.5404L38.5841 90.9086L39.7667 89.29L40.9708 87.6842L42.2208 86.0586L43.4649 84.4821L44.73 82.9191L46.0297 81.3521L47.3326 79.8212L48.672 78.2857L50.031 76.7666L51.3813 75.294L52.779 73.8065L54.1973 72.3347L55.6202 70.8939L57.0762 69.4561L58.5324 68.053L60.005 66.6689L61.5253 65.2754L63.0112 63.9465L64.548 62.6058L66.0967 61.288L67.6448 60.0036L69.2088 58.7383L69.6329 58.4033L70.9738 57.126L72.0543 55.6216L72.8369 53.9428L73.294 52.148L73.4104 50.2996L73.1819 48.4618L72.6159 46.698L71.7325 45.07L70.5622 43.6344L69.1462 42.4408L67.5331 41.5307L65.7791 40.936L63.9451 40.6767ZM171.552 40.7586L169.738 40.7699L167.926 40.8037L167.864 40.8057L166.178 40.8581L166.116 40.8601L166.055 40.8627L164.371 40.9359L164.31 40.9384L164.248 40.9416L162.506 41.039L162.445 41.0434L160.767 41.1578L160.706 41.1618L158.909 41.3069L158.848 41.3122L157.176 41.4679L157.055 41.4798L156.482 41.5406L154.666 41.9057L152.95 42.6012L151.392 43.6038L150.047 44.8777L148.963 46.3787L148.175 48.0556L147.713 49.8487L147.592 51.6971L147.815 53.5358L148.376 55.3005L149.255 56.9313L150.421 58.3701L151.834 59.5678L153.444 60.4824L155.197 61.0822L157.03 61.3465L158.567 61.3037L159.083 61.2497L160.64 61.1046L162.163 60.9814L163.724 60.8753L165.285 60.7878L166.85 60.7195L168.414 60.671L169.982 60.642L171.552 60.6322L173.122 60.642L174.69 60.671L176.255 60.7195L177.819 60.7878L179.38 60.8753L180.941 60.9816L182.465 61.1046L184.02 61.2493L185.569 61.4128L187.117 61.5957L188.663 61.797L190.174 62.0132L191.713 62.2527L193.248 62.5104L194.772 62.7865L196.299 63.0818L197.792 63.3898L199.309 63.7223L200.828 64.0746L202.306 64.4363L203.81 64.8247L205.28 65.2225L206.762 65.6436L208.256 66.088L209.709 66.5391L211.183 67.0164L212.632 67.5053L214.093 68.019L215.558 68.5536L217.006 69.1027L218.392 69.6472L219.837 70.2355L221.252 70.8311L221.319 70.8595L223.012 71.4094L224.848 71.6518L226.697 71.5485L228.495 71.1039L230.179 70.3335L231.691 69.2639L232.979 67.932L233.996 66.3849L234.709 64.6756L235.093 62.8632L235.133 61.0118L234.829 59.1849L234.191 57.446L233.241 55.8557L232.014 54.4692L230.55 53.3346L229.191 52.6127L229.091 52.5693L229.036 52.5455L227.505 51.9008L227.45 51.8776L225.856 51.2287L225.8 51.206L225.744 51.1836L224.142 50.5544L224.085 50.5331L222.476 49.9232L220.802 49.3123L220.745 49.2921L219.179 48.7416L219.121 48.7217L219.064 48.7022L217.49 48.1708L217.433 48.1514L215.794 47.6204L215.737 47.6019L214.092 47.0905L214.034 47.0727L212.382 46.5818L212.324 46.5643L212.266 46.548L210.667 46.0935L210.608 46.0768L208.944 45.6257L208.827 45.5947L207.156 45.1642L207.098 45.1499L205.481 44.7541L205.421 44.7392L205.362 44.7256L203.74 44.349L203.681 44.3355L203.621 44.3224L201.993 43.9661L201.934 43.9528L201.874 43.9409L200.182 43.5915L200.122 43.5798L198.484 43.2632L198.425 43.2513L198.364 43.2405L196.722 42.9436L196.662 42.9327L196.602 42.9228L194.954 42.6455L194.894 42.6356L194.834 42.6261L193.182 42.3691L193.122 42.3596L193.061 42.351L191.406 42.1141L191.345 42.1056L189.564 41.8731L189.503 41.8657L187.839 41.6698L187.778 41.6624L187.717 41.6563L186.05 41.48L185.989 41.4738L185.928 41.4679L184.257 41.3122L184.196 41.3069L184.134 41.3017L182.399 41.1616L182.338 41.1576L180.66 41.0434L180.598 41.039L180.537 41.0354L178.856 40.9416L178.795 40.9384L178.734 40.9357L177.05 40.8627L176.988 40.8601L176.927 40.8581L175.24 40.8057L175.179 40.8037L173.367 40.7699L171.552 40.7586ZM108.575 56.4444L106.725 56.5352L104.924 56.9684L103.512 57.5765L102.824 57.9378L102.771 57.9663L102.718 57.9951L101.256 58.7868L101.202 58.8154L101.15 58.845L99.6973 59.6551L99.644 59.6847L99.5915 59.7145L98.1486 60.5424L98.0961 60.5726L98.0436 60.6034L96.6108 61.449L96.5583 61.4798L96.5063 61.5112L95.0829 62.3749L95.0309 62.4063L93.5146 63.3519L93.4633 63.3848L92.0601 64.2833L92.0088 64.3163L91.9579 64.3497L90.5654 65.266L90.5145 65.2994L89.0815 66.2678L89.031 66.3016L88.9809 66.3366L87.6097 67.2879L87.5596 67.3229L86.0993 68.3625L84.7005 69.3847L84.6512 69.4209L84.6023 69.4572L83.2639 70.4608L83.215 70.4976L83.1665 70.5348L81.8394 71.5553L81.7913 71.5924L81.7432 71.6306L80.4276 72.6679L80.3797 72.7061L79.0285 73.7995L78.9808 73.8379L78.9337 73.8772L77.5947 74.9879L77.5482 75.0277L76.2683 76.1163L76.2218 76.1561L76.1755 76.1962L74.9082 77.3017L74.8621 77.3421L74.8164 77.3832L73.5614 78.5055L73.5157 78.5466L73.4702 78.5881L72.2278 79.7268L72.1828 79.7686L72.1377 79.8103L70.9084 80.9657L70.8635 81.0081L69.6029 82.2231L69.558 82.2656L68.311 83.4972L68.2673 83.5409L67.0357 84.7879L66.992 84.8316L66.9495 84.876L65.7772 86.0924L65.7344 86.1371L65.6927 86.1818L64.5371 87.4114L64.4948 87.4561L63.3145 88.7438L63.2728 88.789L63.2316 88.8347L62.1096 90.0896L62.0689 90.1353L62.0285 90.1814L60.923 91.4494L60.8826 91.4955L60.8427 91.542L59.7542 92.8218L59.7145 92.8683L59.6751 92.9156L58.5642 94.2544L58.5259 94.3021L57.4712 95.6054L57.4325 95.6531L57.3947 95.7014L56.3569 97.0168L56.3192 97.0645L56.282 97.113L55.2611 98.4401L55.224 98.4886L55.1874 98.5375L54.1838 99.8759L54.1473 99.9248L54.1111 99.9741L53.1248 101.323L53.089 101.373L53.0532 101.423L52.0493 102.833L52.0147 102.883L51.063 104.255L51.0284 104.305L50.0262 105.788L49.9924 105.839L49.2142 107.022L48.3447 108.657L47.794 110.425L47.581 112.266L47.713 114.113L48.1853 115.904L48.9822 117.576L50.0753 119.071L51.427 120.337L52.9901 121.33L54.7105 122.016L56.5284 122.371L58.3802 122.383L60.2026 122.05L61.9311 121.385L63.5065 120.411L64.8731 119.161L65.8155 117.945L66.5602 116.815L67.4221 115.539L68.3142 114.253L69.1929 113.019L70.1174 111.752L71.0415 110.52L71.998 109.277L72.9509 108.068L73.938 106.848L74.9253 105.658L75.9412 104.464L76.9611 103.295L78.006 102.126L79.0697 100.966L80.1328 99.8352L81.2122 98.7149L82.3048 97.6084L83.427 96.4997L84.5618 95.4063L85.6925 94.3431L86.8511 93.2813L88.0237 92.2329L89.1882 91.2166L90.3848 90.1991L91.575 89.2115L92.791 88.2271L94.0072 87.2681L95.2312 86.3269L96.4806 85.3903L97.7251 84.4805L98.9795 83.5874L100.245 82.7094L101.541 81.8334L102.825 80.9884L104.121 80.1585L105.425 79.3449L106.747 78.543L108.07 77.7624L109.424 76.9846L110.764 76.2377L112.136 75.4949L112.762 75.1654L114.314 74.1542L115.651 72.873L116.727 71.3655L117.505 69.6842L117.957 67.8885L118.068 66.0397L117.834 64.2022L117.263 62.4405L116.375 60.8149L115.2 59.3826L113.781 58.193L112.165 57.2878L110.41 56.6978L108.575 56.4444ZM268.374 80.7585L266.524 80.8483L264.723 81.2795L263.033 82.0375L261.513 83.0963L260.216 84.4185L259.187 85.9586L258.462 87.6626L258.065 89.4716L258.011 91.3232L258.302 93.1525L258.927 94.8959L259.865 96.4927L260.858 97.6672L261.892 98.7149L262.972 99.8352L264.035 100.966L265.098 102.126L266.143 103.295L267.163 104.464L268.179 105.659L269.167 106.848L270.154 108.068L271.106 109.277L272.063 110.52L272.987 111.752L273.912 113.019L274.79 114.253L275.682 115.539L276.545 116.814L277.404 118.121L278.233 119.415L279.046 120.72L279.843 122.033L280.636 123.378L281.4 124.709L282.153 126.06L282.883 127.41L283.591 128.754L284.3 130.144L284.974 131.505L285.65 132.912L286.295 134.301L286.919 135.686L287.542 137.115L288.137 138.525L288.721 139.96L289.276 141.373L289.828 142.83L290.359 144.285L290.863 145.718L291.359 147.187L291.84 148.67L292.29 150.121L292.733 151.608L292.982 152.485L293.652 154.212L294.63 155.784L295.884 157.147L297.369 158.254L299.033 159.067L300.819 159.556L302.666 159.705L304.507 159.509L306.281 158.975L307.924 158.12L309.38 156.976L310.599 155.581L311.538 153.985L312.164 152.242L312.455 150.413L312.402 148.561L312.098 147.054L311.814 146.054L311.797 145.996L311.323 144.402L311.305 144.344L311.287 144.286L310.776 142.642L310.758 142.583L310.245 141.003L310.226 140.945L310.207 140.888L309.656 139.257L309.636 139.2L309.085 137.633L309.065 137.576L309.045 137.519L308.475 135.959L308.454 135.902L308.433 135.845L307.823 134.236L307.194 132.635L307.171 132.578L306.5 130.928L306.476 130.872L305.832 129.343L305.808 129.287L305.784 129.231L305.121 127.709L305.097 127.654L305.072 127.598L304.365 126.029L304.34 125.974L303.639 124.469L303.613 124.414L303.587 124.359L302.869 122.862L302.843 122.807L302.815 122.753L302.078 121.265L302.051 121.21L302.024 121.156L301.269 119.677L301.241 119.622L300.439 118.098L300.411 118.044L300.382 117.991L299.591 116.529L299.562 116.476L299.532 116.423L298.722 114.971L298.693 114.918L297.835 113.422L297.805 113.369L297.774 113.317L296.897 111.832L296.003 110.357L295.971 110.304L295.026 108.788L294.993 108.737L294.094 107.334L294.061 107.282L293.111 105.838L293.078 105.788L292.075 104.305L292.041 104.255L291.089 102.883L291.054 102.833L291.019 102.783L290.05 101.423L290.015 101.373L289.979 101.324L288.957 99.9248L288.92 99.8759L287.916 98.5375L287.88 98.4886L286.785 97.0645L286.747 97.0168L285.671 95.6533L285.633 95.6056L284.539 94.2542L284.5 94.2073L283.429 92.9156L283.389 92.8683L283.349 92.8218L282.261 91.542L282.221 91.4955L282.181 91.4492L281.075 90.1817L281.035 90.1353L280.994 90.0896L279.872 88.8347L279.831 88.789L279.789 88.7438L278.609 87.4561L278.567 87.4114L277.411 86.1818L277.369 86.1371L277.327 86.0924L276.112 84.8318L276.068 84.7879L274.996 83.7027L273.578 82.5119L271.963 81.6051L270.208 81.014L268.374 80.7585ZM345.587 168.758L343.739 168.867L341.942 169.318L340.261 170.095L338.753 171.17L337.47 172.506L336.458 174.057L335.751 175.769L335.374 177.582L335.322 179.119L335.391 180.717L335.454 182.751L335.492 184.787L335.505 186.826L335.492 188.865L335.454 190.901L335.391 192.934L335.303 194.964L335.189 196.993L335.051 199.015L334.888 201.04L334.703 203.026L334.491 205.037L334.253 207.051L333.992 209.052L333.705 211.054L333.4 213.015L333.064 215.012L332.706 216.994L332.328 218.95L331.92 220.925L331.49 222.887L331.04 224.828L330.554 226.813L330.058 228.734L329.542 230.641L328.99 232.584L328.417 234.511L327.82 236.432L327.21 238.316L326.564 240.229L325.894 242.136L325.219 243.984L324.503 245.874L323.79 247.689L323.021 249.576L322.248 251.41L321.441 253.263L320.628 255.067L319.776 256.899L318.919 258.682L318.022 260.494L317.096 262.309L316.411 264.03L316.058 265.848L316.048 267.7L316.382 269.522L317.048 271.251L318.024 272.825L319.275 274.191L320.757 275.301L322.42 276.117L324.205 276.61L326.051 276.763L327.893 276.571L329.668 276.04L331.312 275.189L332.772 274.048L333.993 272.656L334.796 271.344L335.759 269.457L335.787 269.403L335.814 269.349L336.755 267.447L336.782 267.393L336.808 267.339L337.727 265.426L337.753 265.372L337.778 265.316L338.673 263.393L338.698 263.338L338.723 263.283L339.594 261.349L339.619 261.294L339.643 261.239L340.491 259.294L340.514 259.239L340.538 259.183L341.362 257.229L341.385 257.173L341.408 257.117L342.208 255.153L342.23 255.097L342.253 255.04L343.028 253.066L343.05 253.01L343.072 252.954L343.823 250.97L343.845 250.913L343.865 250.857L344.593 248.864L344.614 248.808L344.634 248.75L345.337 246.749L345.357 246.691L345.377 246.634L346.055 244.624L346.075 244.566L346.094 244.509L346.748 242.49L346.767 242.432L346.785 242.374L347.415 240.347L347.433 240.289L347.45 240.231L348.055 238.196L348.073 238.138L348.686 235.978L349.274 233.81L349.289 233.751L349.835 231.634L349.849 231.575L350.355 229.509L350.369 229.45L350.383 229.391L350.863 227.319L350.877 227.259L350.89 227.2L351.345 225.12L351.358 225.061L351.37 225.002L351.813 222.856L351.824 222.796L352.229 220.704L352.241 220.644L352.252 220.585L352.631 218.486L352.642 218.426L353.017 216.202L353.364 213.971L353.372 213.911L353.675 211.796L353.684 211.735L353.692 211.675L353.968 209.554L353.976 209.493L353.983 209.433L354.234 207.307L354.241 207.246L354.247 207.186L354.472 205.055L354.479 204.994L354.485 204.933L354.683 202.799L354.689 202.738L354.694 202.677L354.871 200.476L354.875 200.415L355.021 198.272L355.026 198.211L355.029 198.15L355.149 196.002L355.153 195.941L355.155 195.88L355.249 193.729L355.252 193.668L355.254 193.606L355.32 191.452L355.324 191.329L355.364 189.171L355.366 189.11V189.048L355.38 186.888L355.375 186.832L355.38 186.764L355.366 184.604V184.542L355.364 184.481L355.324 182.323L355.254 180.046L355.252 179.985L355.249 179.923L355.177 178.258L354.924 176.423L354.336 174.667L353.431 173.05L352.243 171.63L350.811 170.454L349.186 169.565L347.425 168.993L345.587 168.758ZM306.396 198.576L304.544 198.666L302.743 199.097L301.053 199.855L299.533 200.913L298.236 202.235L297.206 203.774L296.481 205.479L296.138 206.932L296.128 206.975L295.87 208.516L295.592 210.052L295.296 211.579L294.99 213.065L294.657 214.583L294.313 216.066L293.935 217.61L293.557 219.075L293.151 220.573L292.733 222.044L292.291 223.531L291.841 224.982L291.363 226.456L290.868 227.924L290.361 229.367L289.83 230.822L289.282 232.268L288.718 233.702L288.134 235.137L287.544 236.536L286.926 237.955L286.297 239.351L285.657 240.728L284.981 242.134L284.301 243.507L283.592 244.897L282.877 246.255L282.154 247.59L281.394 248.955L280.63 250.287L279.844 251.619L279.048 252.932L278.235 254.236L277.405 255.531L276.555 256.824L275.684 258.113L274.792 259.399L273.913 260.634L272.989 261.899L272.064 263.132L271.097 264.39L270.588 265.035L269.581 266.589L268.88 268.304L268.51 270.119L268.483 271.97L268.8 273.795L269.45 275.529L270.411 277.113L271.649 278.49L273.121 279.615L274.776 280.446L276.557 280.955L278.401 281.126L280.245 280.951L282.025 280.437L283.678 279.601L285.147 278.474L286.19 277.344L286.749 276.635L286.787 276.587L286.824 276.539L287.845 275.211L287.882 275.163L287.918 275.114L288.922 273.776L288.959 273.727L288.995 273.678L289.981 272.328L290.017 272.279L290.052 272.229L291.057 270.819L291.091 270.769L292.043 269.397L292.077 269.347L292.111 269.296L293.046 267.914L293.08 267.864L293.113 267.813L294.03 266.42L294.063 266.37L294.096 266.318L294.995 264.915L295.028 264.864L295.973 263.347L296.005 263.295L296.868 261.872L296.899 261.82L296.93 261.768L297.776 260.335L297.807 260.282L297.837 260.229L298.695 258.734L298.724 258.681L299.534 257.229L299.563 257.175L299.593 257.122L300.384 255.661L300.413 255.607L300.441 255.553L301.215 254.083L301.243 254.029L301.271 253.975L302.026 252.495L302.054 252.441L302.08 252.387L302.818 250.898L302.845 250.844L302.871 250.79L303.615 249.238L303.641 249.183L304.342 247.677L304.367 247.622L304.392 247.567L305.099 245.998L305.123 245.942L305.81 244.365L305.834 244.309L306.478 242.779L306.502 242.723L307.151 241.13L307.173 241.074L307.803 239.472L307.825 239.416L307.847 239.359L308.435 237.806L308.456 237.75L308.477 237.693L309.047 236.133L309.067 236.076L309.658 234.395L309.677 234.337L310.209 232.763L310.228 232.706L310.759 231.068L310.778 231.011L310.796 230.952L311.289 229.366L311.308 229.308L311.325 229.25L311.799 227.656L311.816 227.598L311.833 227.54L312.304 225.882L312.32 225.823L312.77 224.159L313.216 222.43L313.23 222.371L313.626 220.754L313.64 220.695L313.654 220.636L314.03 219.013L314.044 218.954L314.057 218.895L314.414 217.267L314.427 217.207L314.776 215.515L314.788 215.455L314.8 215.396L315.117 213.758L315.128 213.698L315.139 213.638L315.436 211.995L315.447 211.935L315.457 211.875L315.735 210.228L315.745 210.168L315.754 210.107L315.766 210.031L315.879 208.182L315.647 206.344L315.078 204.582L314.192 202.955L313.019 201.522L311.601 200.331L309.986 199.424L308.231 198.832L306.396 198.576ZM66.3199 263.922L64.4882 264.196L62.7388 264.805L61.1334 265.728L59.7268 266.933L58.5686 268.378L57.6982 270.013L57.1471 271.781L56.9333 273.621L57.0648 275.469L57.5368 277.26L58.3329 278.932L59.2203 280.188L59.6751 280.736L59.7143 280.783L59.7542 280.83L60.8826 282.156L62.0285 283.47L62.0689 283.516L62.1096 283.562L63.2316 284.817L63.273 284.863L63.3145 284.908L64.4948 286.196L64.5371 286.241L65.6925 287.47L65.7344 287.515L66.9495 288.776L66.992 288.82L67.0357 288.864L68.2241 290.067L68.267 290.111L68.311 290.154L69.5143 291.343L69.558 291.386L69.6027 291.429L70.8635 292.643L70.9084 292.686L72.1377 293.841L72.1828 293.883L72.2278 293.925L73.5157 295.106L73.5614 295.146L74.8162 296.269L74.8619 296.309L76.2218 297.496L76.2683 297.535L77.5947 298.664L77.642 298.703L78.9337 299.775L78.9808 299.814L79.0285 299.852L80.3797 300.945L80.4278 300.984L81.7432 302.021L81.7913 302.059L81.8394 302.096L83.215 303.155L83.2639 303.191L84.6023 304.194L84.6512 304.231L86.0993 305.289L86.149 305.324L87.5099 306.293L87.5596 306.329L88.9807 307.315L89.031 307.35L89.0815 307.384L90.4641 308.318L90.5145 308.352L90.5654 308.386L91.9579 309.302L92.0088 309.336L92.0601 309.368L93.4631 310.267L93.5144 310.3L95.0309 311.245L95.0829 311.277L96.5063 312.14L96.5583 312.172L96.6106 312.203L98.0961 313.079L98.1486 313.11L99.5915 313.937L99.644 313.967L99.6973 313.997L101.15 314.806L101.202 314.836L101.256 314.865L102.718 315.657L102.771 315.685L102.824 315.714L104.295 316.487L104.349 316.516L104.403 316.543L105.883 317.298L105.937 317.326L105.991 317.353L107.534 318.117L107.589 318.143L109.086 318.862L109.14 318.888L109.196 318.914L110.701 319.614L110.756 319.639L112.38 320.371L112.436 320.395L113.958 321.058L114.013 321.082L114.069 321.106L115.599 321.751L115.655 321.774L117.248 322.423L117.305 322.446L118.842 323.05L120.621 323.564L122.465 323.738L124.309 323.568L126.09 323.058L127.744 322.226L129.217 321.102L130.454 319.724L131.415 318.141L132.065 316.406L132.382 314.581L132.354 312.73L131.984 310.915L131.282 309.201L130.276 307.646L128.998 306.305L127.494 305.225L126.11 304.554L124.686 303.994L123.241 303.406L121.842 302.816L120.438 302.204L119.053 301.581L117.613 300.911L116.245 300.254L114.871 299.574L113.493 298.87L112.135 298.157L110.787 297.427L109.424 296.666L108.091 295.902L106.769 295.122L105.446 294.32L104.143 293.507L102.825 292.663L101.54 291.818L100.265 290.956L98.9997 290.079L97.7251 289.171L96.461 288.247L95.2125 287.311L93.9891 286.37L92.7914 285.424L91.575 284.44L90.3669 283.438L89.2063 282.45L88.0068 281.404L86.8511 280.37L85.7088 279.323L84.5612 278.244L83.4423 277.167L82.304 276.043L81.2269 274.952L80.1183 273.801L79.0563 272.671L77.9925 271.51L76.9748 270.372L75.9408 269.187L74.9253 267.994L74.5143 267.498L73.2039 266.189L71.6735 265.146L69.9761 264.405L68.1705 263.992L66.3199 263.922ZM239.387 294.954L237.542 295.114L235.759 295.612L234.369 296.272L233.682 296.665L232.318 297.427L230.969 298.157L229.612 298.87L228.234 299.574L226.86 300.254L225.492 300.911L224.052 301.581L222.667 302.204L221.263 302.816L219.863 303.406L218.419 303.994L216.978 304.56L215.558 305.099L214.093 305.633L212.66 306.136L211.182 306.636L209.737 307.104L208.229 307.573L206.762 308.009L205.307 308.422L203.81 308.827L202.307 309.215L200.828 309.577L199.308 309.93L197.821 310.256L196.27 310.576L194.744 310.871L193.248 311.141L191.743 311.394L190.174 311.639L188.662 311.855L187.116 312.057L185.599 312.236L184.02 312.403L182.465 312.547L180.941 312.67L179.35 312.778L177.79 312.865L176.256 312.932L174.69 312.981L173.075 313.011L171.235 313.217L169.464 313.762L167.826 314.626L166.377 315.779L165.166 317.181L164.237 318.783L163.622 320.53L163.341 322.361L163.405 324.212L163.811 326.019L164.545 327.719L165.583 329.254L166.887 330.569L168.412 331.619L170.106 332.368L171.91 332.79L173.445 332.88L175.117 332.849L175.179 332.847L175.24 332.845L176.927 332.794L176.988 332.792L177.05 332.789L178.733 332.716L178.795 332.713L178.856 332.71L180.537 332.616L180.598 332.612L180.66 332.608L182.338 332.494L182.399 332.49L184.134 332.349L184.196 332.345L184.257 332.339L185.928 332.183L185.989 332.178L186.05 332.171L187.717 331.995L187.778 331.989L187.839 331.982L189.503 331.785L189.564 331.778L191.345 331.546L191.405 331.537L193.061 331.3L193.122 331.292L194.894 331.016L194.954 331.006L196.662 330.719L196.721 330.708L198.364 330.411L198.424 330.4L200.182 330.06L200.241 330.048L201.874 329.711L201.934 329.698L201.993 329.686L203.621 329.329L203.681 329.316L203.74 329.302L205.362 328.926L205.421 328.912L205.481 328.898L207.156 328.487L207.215 328.472L208.885 328.041L210.608 327.574L210.666 327.558L212.266 327.104L212.324 327.087L212.382 327.07L213.976 326.596L214.034 326.578L215.679 326.068L215.737 326.049L215.794 326.031L217.375 325.519L217.433 325.5L217.49 325.481L219.121 324.93L219.178 324.91L220.803 324.339L220.859 324.318L222.419 323.749L222.476 323.728L222.533 323.706L224.085 323.119L224.142 323.097L224.198 323.075L225.743 322.468L225.8 322.446L225.856 322.423L227.394 321.797L227.45 321.774L227.505 321.75L229.035 321.106L229.091 321.082L229.147 321.058L230.669 320.395L230.724 320.371L232.349 319.639L232.403 319.613L233.909 318.913L233.964 318.887L234.019 318.861L235.516 318.143L235.571 318.116L237.113 317.352L237.168 317.325L238.701 316.543L238.755 316.515L240.334 315.685L240.387 315.656L241.849 314.864L241.902 314.835L243.407 313.996L243.461 313.967L243.513 313.937L244.258 313.509L245.771 312.442L247.061 311.112L248.081 309.566L248.796 307.858L249.183 306.047L249.226 304.195L248.924 302.368L248.289 300.628L247.342 299.036L246.117 297.648L244.654 296.511L243.006 295.665L241.23 295.14L239.387 294.954ZM60.451 311.114L58.6191 311.386L56.8693 311.993L55.2623 312.915L53.8549 314.118L52.6947 315.562L51.8229 317.196L51.2698 318.964L51.054 320.804L51.1832 322.651L51.6538 324.443L52.4479 326.116L53.5389 327.612L54.6429 328.683L55.0038 328.982L55.0507 329.022L55.0984 329.06L56.7637 330.407L56.8114 330.446L56.8595 330.484L58.5398 331.809L58.5875 331.847L60.3796 333.226L60.4285 333.262L62.138 334.544L62.1869 334.581L62.2362 334.617L63.9604 335.876L64.0097 335.912L64.0593 335.948L65.7974 337.186L65.8471 337.221L65.8972 337.256L67.6989 338.505L67.7498 338.54L69.5155 339.733L69.566 339.767L71.3957 340.971L71.4463 341.005L71.4976 341.038L73.2902 342.186L73.3414 342.218L75.2498 343.408L75.3019 343.44L77.1199 344.543L77.172 344.574L77.2244 344.605L79.0547 345.685L79.1072 345.716L79.1601 345.746L81.0029 346.803L81.0558 346.834L83.017 347.927L83.0703 347.956L84.9372 348.967L84.9908 348.996L85.0445 349.024L86.9229 350.013L86.9769 350.04L87.0308 350.068L88.9211 351.033L88.9752 351.061L89.0294 351.087L90.9305 352.029L90.9849 352.056L91.0396 352.082L92.952 353L93.0068 353.027L93.0615 353.052L95.0398 353.972L97.0285 354.868L97.0842 354.893L97.1398 354.917L99.1394 355.788L99.1951 355.812L101.149 356.635L101.205 356.659L101.261 356.682L103.226 357.481L103.281 357.504L103.338 357.526L105.312 358.302L105.368 358.324L105.425 358.346L107.408 359.097L107.464 359.118L109.514 359.867L109.571 359.887L109.628 359.908L111.63 360.611L111.687 360.631L111.744 360.65L113.812 361.348L113.87 361.367L115.888 362.021L115.946 362.04L116.004 362.058L118.031 362.688L118.089 362.706L118.147 362.723L120.241 363.346L120.299 363.362L122.401 363.959L124.568 364.547L124.627 364.562L126.685 365.093L126.744 365.108L126.803 365.122L128.869 365.628L128.928 365.642L128.987 365.656L131.119 366.15L131.178 366.164L133.003 366.563L134.841 366.789L136.69 366.67L138.484 366.21L140.161 365.425L141.664 364.342L142.94 363L143.944 361.444L144.642 359.728L145.01 357.913L145.034 356.061L144.714 354.237L144.061 352.503L143.098 350.921L141.858 349.546L140.385 348.424L138.728 347.595L137.256 347.151L135.49 346.764L133.557 346.316L131.594 345.835L129.652 345.334L127.709 344.808L125.794 344.264L123.866 343.691L121.966 343.1L120.062 342.483L118.149 341.837L116.281 341.181L114.383 340.488L112.532 339.786L110.651 339.048L108.803 338.295L106.968 337.522L105.116 336.715L103.312 335.902L101.505 335.061L99.6953 334.193L97.9087 333.308L96.145 332.408L94.3552 331.467L92.6016 330.518L90.8343 329.533L89.1035 328.54L87.3593 327.511L85.6653 326.483L83.9696 325.425L82.2628 324.332L80.5919 323.233L78.9337 322.113L77.2674 320.956L75.6346 319.794L74.0151 318.61L72.4106 317.407L70.8005 316.169L69.2081 314.913L67.6452 313.648L67.3328 313.389L65.8032 312.345L64.1066 311.602L62.3018 311.187L60.451 311.114ZM281.22 312.117L279.371 312.226L277.574 312.676L275.892 313.451L274.625 314.323L273.896 314.912L272.304 316.169L270.694 317.407L269.089 318.61L267.47 319.794L265.837 320.956L264.171 322.113L262.513 323.233L260.842 324.332L259.135 325.425L257.439 326.483L255.745 327.511L254.001 328.54L252.27 329.533L250.503 330.518L248.749 331.467L246.96 332.408L245.196 333.308L243.409 334.193L241.6 335.061L239.793 335.902L237.989 336.715L236.136 337.522L234.302 338.295L232.453 339.048L230.573 339.786L228.722 340.488L226.824 341.181L224.956 341.837L223.043 342.483L221.139 343.1L219.238 343.691L217.31 344.264L215.396 344.808L213.453 345.334L211.511 345.835L209.548 346.316L207.614 346.764L205.674 347.189L204.4 347.452L202.629 347.993L200.989 348.854L199.537 350.005L198.325 351.404L197.392 353.005L196.774 354.751L196.489 356.581L196.55 358.432L196.953 360.24L197.684 361.941L198.719 363.478L200.02 364.795L201.543 365.848L203.236 366.6L205.039 367.025L206.889 367.108L208.415 366.915L209.728 366.645L209.788 366.632L209.847 366.619L211.926 366.164L211.986 366.15L214.118 365.656L214.176 365.642L214.235 365.628L216.301 365.122L216.36 365.108L216.419 365.093L218.477 364.562L218.536 364.546L220.704 363.959L222.806 363.362L222.864 363.345L224.958 362.723L225.015 362.705L225.074 362.687L227.158 362.04L227.216 362.021L229.235 361.366L229.293 361.348L229.35 361.329L231.418 360.63L231.475 360.61L233.477 359.907L233.534 359.887L233.591 359.866L235.583 359.139L235.64 359.118L235.696 359.097L237.68 358.345L237.736 358.324L237.793 358.301L239.766 357.526L239.823 357.504L239.879 357.481L241.843 356.681L241.899 356.658L241.955 356.635L243.91 355.811L243.965 355.788L244.021 355.764L245.965 354.917L246.02 354.892L246.076 354.867L248.065 353.971L248.12 353.946L250.043 353.052L250.098 353.026L250.153 353L252.12 352.055L252.174 352.029L254.129 351.06L256.074 350.068L256.128 350.04L256.182 350.012L258.06 349.024L258.114 348.995L258.167 348.967L260.034 347.956L260.087 347.927L260.141 347.897L262.049 346.833L262.102 346.803L263.944 345.746L263.997 345.716L264.05 345.685L265.88 344.605L265.933 344.574L265.985 344.542L267.855 343.408L269.763 342.218L269.814 342.185L271.607 341.037L271.658 341.004L271.709 340.971L273.488 339.8L273.539 339.767L273.589 339.732L275.355 338.539L275.406 338.505L275.455 338.471L277.207 337.255L277.257 337.22L277.307 337.185L279.095 335.912L279.144 335.876L280.868 334.616L280.918 334.58L280.966 334.544L282.725 333.225L284.517 331.847L284.565 331.809L286.245 330.483L286.293 330.446L286.341 330.407L287.126 329.772L288.45 328.478L289.512 326.96L290.274 325.272L290.709 323.472L290.803 321.622L290.551 319.787L289.964 318.031L289.061 316.414L287.873 314.992L286.442 313.816L284.818 312.926L283.057 312.353L281.22 312.117Z" stroke="url(#paint0_linear_203_4)" stroke-opacity="0.05" stroke-width="4.07"/>
<defs>
<linearGradient id="paint0_linear_203_4" x1="179" y1="391" x2="243.5" y2="-10.5" gradientUnits="userSpaceOnUse">
<stop stop-color="#CD8DD6"/>
<stop offset="1" stop-color="#7E485B" stop-opacity="0.33"/>
</linearGradient>
</defs>
</svg>
